<svg xmlns="http://www.w3.org/2000/svg" width="299.08" height="273.217" viewBox="0 0 299.08 273.217">
  <g id="Group_262" data-name="Group 262" transform="translate(-998.926 -64.215)" opacity="0.25">
    <g id="Group_253" data-name="Group 253" transform="translate(996.076 64.215)">
      <path id="Path_107" data-name="Path 107" d="M9227.315,20328.625c-2.941,2.059-1.944,7.424-4.9,12.648-4.591,8.105-14.315,14.512-7.942,14.512s16.963-.295,24.9-5.295c.691-.449-1.5-2.77,0-4.217.531-.512,2.622.486,3.039,0,.351.291,1.485,4.609,2.451,6.178,1.186,1.924,4.986,4.371,7.354,7.549,2.018,2.709,2.6,6.145,3.138,6.178,2.277.143,3.641-9.193,1.765-15.687-2.286-7.914-7.128-15.785-10.27-17.4s-5.623,0-11.951,0S9227.315,20328.625,9227.315,20328.625Z" transform="translate(-8972.29 -20129.732)" fill="#e7daf9"/>
      <g id="Group_243" data-name="Group 243" transform="translate(69.259 0)">
        <path id="Path_62" data-name="Path 62" d="M9071.018,20182.023s10.764-9.945,8.483-20.8-10.11-19.436-20.532-17.654-18.815,11.277-16.411,22.424,6.992,15,6.992,15a16.381,16.381,0,0,0,4.775-3.025,21.747,21.747,0,0,0,3.648-4.973s5.2,6.6,8.21,7.51S9071.018,20182.023,9071.018,20182.023Z" transform="translate(-8998.686 -20114.449)" fill="#f2eef8"/>
        <g id="Group_231" data-name="Group 231" transform="translate(0 0)">
          <path id="Path_55" data-name="Path 55" d="M8921.173,20215.547s-7.51-5.932-7.51-18.977,10.6-22.205,23.42-22.205,24.073,8.328,24.073,22.205-8.729,19.613-8.729,19.613" transform="translate(-8871.736 -20147.518)" fill="none" stroke="#7243bf" stroke-width="2"/>
          <path id="Path_56" data-name="Path 56" d="M8883.4,20214.979c11.608-.539,17.81-10.15,17.81-10.15s7.123,10.15,17.413,10.15,18.47-10.15,18.47-10.15,7.9,10.775,18.6,10.15,16.754-10.15,16.754-10.15,4.881,9.936,15.567,9.5" transform="translate(-8872.798 -20143.252)" fill="none" stroke="#7243bf" stroke-linecap="round" stroke-linejoin="round" stroke-width="2"/>
          <path id="Path_57" data-name="Path 57" d="M8900.6,20204.828s7.123,8.248,17.413,8.248,18.47-8.248,18.47-8.248,7.9,8.756,18.6,8.248a24.083,24.083,0,0,0,16.754-8.248s6.586,8.227,15,8.248c4.865.014,14.309-7.611,14.309-7.611" transform="translate(-8890.825 -20126.773)" fill="none" stroke="#7243bf" stroke-linecap="round" stroke-linejoin="round" stroke-width="2"/>
          <path id="Path_58" data-name="Path 58" d="M8883.4,20212.992a25.1,25.1,0,0,0,17.81-8.164s7.123,8.164,17.413,8.164,18.47-8.164,18.47-8.164,7.9,8.664,18.6,8.164a24.143,24.143,0,0,0,16.754-8.164,17.927,17.927,0,0,0,15.567,7.643" transform="translate(-8872.798 -20112.24)" fill="none" stroke="#7243bf" stroke-linecap="round" stroke-linejoin="round" stroke-width="2"/>
          <path id="Path_60" data-name="Path 60" d="M8890.925,20211.492a23.734,23.734,0,0,0,10.017-6.664s7.123,8.164,17.413,8.164,18.47-8.164,18.47-8.164,7.9,8.664,18.6,8.164a24.143,24.143,0,0,0,16.754-8.164,17.927,17.927,0,0,0,15.567,7.643" transform="translate(-8880.814 -20097.75)" fill="none" stroke="#7243bf" stroke-linecap="round" stroke-linejoin="round" stroke-width="2"/>
          <g id="Path_61" data-name="Path 61" transform="translate(0.385 0.575)" fill="none">
            <path d="M5.509.02s23.519,1.338,52.283,0,59.357,0,59.357,0A5.33,5.33,0,0,1,122.622,5.2V127.328a5.33,5.33,0,0,1-5.473,5.175H5.509a5.33,5.33,0,0,1-5.473-5.175s-.949-39.509,0-70.5S.036,5.2.036,5.2A5.33,5.33,0,0,1,5.509.02Z" stroke="none"/>
            <path d="M 85.96507263183594 -0.57464599609375 L 85.96507263183594 1.42535400390625 C 75.78392791748047 1.425369262695312 66.33647155761719 1.624755859375 57.88514709472656 2.017974853515625 C 49.37156677246094 2.414077758789062 40.47859954833984 2.614913940429688 31.45327758789062 2.614913940429688 C 16.70917510986328 2.614913940429688 6.368797302246094 2.070022583007812 5.459693908691406 2.02044677734375 C 3.581672668457031 2.04449462890625 2.059249877929688 3.43865966796875 2.036674499511719 5.156608581542969 C 2.088890075683594 6.350799560546875 2.952781677246094 26.94001770019531 2.035476684570312 56.89028167724609 C 1.098930358886719 87.46913146972656 2.0263671875 126.8851470947266 2.035835266113281 127.2797164916992 L 2.036422729492188 127.3037338256836 L 2.036422729492188 127.327751159668 C 2.036422729492188 129.0785217285156 3.594200134277344 130.5028533935547 5.508979797363281 130.5028533935547 L 117.1491317749023 130.5028533935547 C 119.0639114379883 130.5028533935547 120.621711730957 129.0785217285156 120.621711730957 127.327751159668 L 120.621711730957 51.51149749755859 L 120.621711730957 5.195220947265625 C 120.621711730957 3.444480895996094 119.0639114379883 2.020126342773438 117.1491317749023 2.020126342773438 L 117.1054000854492 2.020126342773438 L 117.0617294311523 2.018218994140625 C 116.9261474609375 2.012298583984375 103.3027267456055 1.425308227539062 85.96507263183594 1.42535400390625 L 85.96507263183594 -0.57464599609375 M 85.96506500244141 -0.5746612548828125 C 103.5530853271484 -0.5746917724609375 117.1491317749023 0.0201263427734375 117.1491317749023 0.0201263427734375 C 120.1715469360352 0.0201263427734375 122.621711730957 2.33709716796875 122.621711730957 5.195220947265625 L 122.621711730957 51.51149749755859 L 122.621711730957 127.327751159668 C 122.621711730957 130.1858978271484 120.1715469360352 132.5028533935547 117.1491317749023 132.5028533935547 L 5.508979797363281 132.5028533935547 C 2.486564636230469 132.5028533935547 0.0364227294921875 130.1858978271484 0.0364227294921875 127.327751159668 C 0.0364227294921875 127.327751159668 -0.9127273559570312 87.81906127929688 0.0364227294921875 56.82906341552734 C 0.985565185546875 25.83905792236328 0.0364227294921875 5.195220947265625 0.0364227294921875 5.195220947265625 C 0.0364227294921875 2.33709716796875 2.486564636230469 0.0201263427734375 5.508979797363281 0.0201263427734375 C 5.508979797363281 0.0201263427734375 15.96350860595703 0.6149139404296875 31.45326995849609 0.6149139404296875 C 39.19956970214844 0.6149139404296875 48.20301055908203 0.466278076171875 57.79220199584961 0.0201263427734375 C 67.379638671875 -0.425933837890625 77.17185974121094 -0.5746307373046875 85.96506500244141 -0.5746612548828125 Z" stroke="none" fill="#7243bf"/>
          </g>
          <line id="Line_25" data-name="Line 25" x2="9.315" transform="translate(26.233 49.758)" fill="none" stroke="#7243bf" stroke-linecap="round" stroke-width="2"/>
          <line id="Line_26" data-name="Line 26" x2="6.21" y2="6.21" transform="translate(36.583 24.918)" fill="none" stroke="#7243bf" stroke-linecap="round" stroke-width="2"/>
          <line id="Line_27" data-name="Line 27" y2="9.315" transform="translate(65.563 14.568)" fill="none" stroke="#7243bf" stroke-linecap="round" stroke-width="2"/>
          <line id="Line_28" data-name="Line 28" y1="7.245" x2="6.21" transform="translate(87.299 24.918)" fill="none" stroke="#7243bf" stroke-linecap="round" stroke-width="2"/>
          <line id="Line_29" data-name="Line 29" x2="8.28" transform="translate(96.614 49.758)" fill="none" stroke="#7243bf" stroke-linecap="round" stroke-width="2"/>
        </g>
        <path id="Path_63" data-name="Path 63" d="M9006.7,20183.592c9.133-.184,18.57-7.543,18.57-7.3s6.7,7.9,16.034,7.779,19.788-8.32,19.788-8.32,8.626,8.619,17.354,8.32,18.875-8.32,18.875-8.32,1.521,7.783,9.133,7.844,4.363,0,4.363,0-9.945,6.174-17.759,5.752-15.526-4.2-15.526-4.2-4.565,4.855-16.439,4.2-19.382-4.5-19.382-4.5-6.292,4.557-16.44,4.5S9006.7,20183.592,9006.7,20183.592Z" transform="translate(-8996.822 -20111.244)" fill="#f2eef8"/>
        <path id="Path_64" data-name="Path 64" d="M9006.7,20183.592c9.133-.184,18.57-7.543,18.57-7.3s6.7,7.9,16.034,7.779,19.788-8.32,19.788-8.32,8.626,8.619,17.354,8.32,18.875-8.32,18.875-8.32,1.521,7.783,9.133,7.844,4.363,0,4.363,0-9.945,6.174-17.759,5.752-15.526-4.2-15.526-4.2-4.565,4.855-16.439,4.2-19.382-4.5-19.382-4.5-6.292,4.557-16.44,4.5S9006.7,20183.592,9006.7,20183.592Z" transform="translate(-8996.822 -20081.229)" fill="#f2eef8"/>
      </g>
      <g id="Group_242" data-name="Group 242" transform="translate(229.384 101.664)">
        <path id="Path_76" data-name="Path 76" d="M8842.688,20322.576s-6.759-3.516-9.208-19.5,11.071-19.666,18.277-19.666,19.522,5.66,17.3,19.666-8.721,19.5-8.721,19.5" transform="translate(-8833.188 -20283.414)" fill="none" stroke="#7243bf" stroke-linecap="round" stroke-width="2"/>
        <path id="Path_77" data-name="Path 77" d="M8858.213,20350.666l-3.459-18.816,3.459,3.17,2.668-3.17,2.956,3.82,3.1-3.533,2.378,3.533,3.028-3.533-3.748,18.529" transform="translate(-8845.235 -20310.777)" fill="none" stroke="#7243bf" stroke-linecap="round" stroke-linejoin="round" stroke-width="2"/>
        <path id="Path_78" data-name="Path 78" d="M8863.589,20373.574a9.84,9.84,0,0,1-5.855,4.082c-4.072,1.02-10.437,0-10.437,0" transform="translate(-8837.777 -20334.621)" fill="none" stroke="#7243bf" stroke-linecap="round" stroke-width="2"/>
        <path id="Path_79" data-name="Path 79" d="M8863.591,20374.576a9.837,9.837,0,0,1-5.856,3.266c-4.072.818-10.437,0-10.437,0" transform="translate(-8837.343 -20330.836)" fill="none" stroke="#7243bf" stroke-linecap="round" stroke-width="2"/>
        <path id="Path_80" data-name="Path 80" d="M8859.359,20375.576a7.268,7.268,0,0,1-4.334,2.449,29.913,29.913,0,0,1-7.729,0" transform="translate(-8834.732 -20327.961)" fill="none" stroke="#7243bf" stroke-linecap="round" stroke-width="2"/>
        <line id="Line_40" data-name="Line 40" y2="1.633" transform="translate(14.112 43.566)" fill="none" stroke="#7243bf" stroke-linecap="round" stroke-width="2"/>
      </g>
      <path id="Path_94" data-name="Path 94" d="M9087.292,20168.213c-18.052,45.945,24.261,61.506,24.261,61.506" transform="translate(-8944.338 -20035.133)" fill="none" stroke="#7243bf" stroke-width="2" stroke-dasharray="4"/>
      <path id="Path_95" data-name="Path 95" d="M9147.167,20239.074c-69.764-7.643-72.011,43.42-145.763,39.6" transform="translate(-8920.503 -20089.387)" fill="none" stroke="#7243bf" stroke-width="2" stroke-dasharray="4"/>
      <path id="Path_99" data-name="Path 99" d="M9010.25,20292.037c14.895,12.1,32.323,21.055,50.62,25.205" transform="translate(-8951.414 -20063.518)" fill="none" stroke="#7243bf" stroke-width="2" stroke-dasharray="4"/>
      <g id="Group_250" data-name="Group 250" transform="translate(3.849 151.591)">
        <g id="Group_247" data-name="Group 247" transform="translate(0)">
          <line id="Line_51" data-name="Line 51" x2="8.486" transform="translate(0 5.827)" fill="none" stroke="#7243bf" stroke-linecap="round" stroke-width="2"/>
          <line id="Line_52" data-name="Line 52" x2="9.698" transform="translate(14.547 5.827)" fill="none" stroke="#7243bf" stroke-linecap="round" stroke-width="2"/>
          <line id="Line_53" data-name="Line 53" x2="10.304" transform="translate(29.094 5.827)" fill="none" stroke="#7243bf" stroke-linecap="round" stroke-width="2"/>
          <line id="Line_54" data-name="Line 54" x2="10.304" transform="translate(42.429 5.827)" fill="none" stroke="#7243bf" stroke-linecap="round" stroke-width="2"/>
          <line id="Line_55" data-name="Line 55" x2="10.304" transform="translate(56.977 5.827)" fill="none" stroke="#7243bf" stroke-linecap="round" stroke-width="2"/>
          <path id="Path_88" data-name="Path 88" d="M8827.5,20288.4v51.871c0,6.92,5.313,7.313,7.4,7.313s8.878-7.312,8.878-7.312h60.452a17.548,17.548,0,0,1-3.884,5.529,8.759,8.759,0,0,1-5.122,1.783H8838.3" transform="translate(-8827.5 -20282.635)" fill="none" stroke="#7243bf" stroke-linecap="round" stroke-width="2"/>
          <line id="Line_56" data-name="Line 56" y2="48.491" transform="translate(70.918 7.039)" fill="none" stroke="#7243bf" stroke-linecap="round" stroke-width="2"/>
          <path id="Path_89" data-name="Path 89" d="M4.883,0A4.883,4.883,0,1,1,0,4.883" transform="translate(3.637 9.767) rotate(-90)" fill="none" stroke="#7243bf" stroke-linecap="round" stroke-width="2"/>
          <path id="Path_90" data-name="Path 90" d="M4.883,0A4.883,4.883,0,1,1,0,4.883" transform="translate(17.578 9.767) rotate(-90)" fill="none" stroke="#7243bf" stroke-linecap="round" stroke-width="2"/>
          <path id="Path_91" data-name="Path 91" d="M4.883,0A4.883,4.883,0,1,1,0,4.883" transform="translate(31.519 9.767) rotate(-90)" fill="none" stroke="#7243bf" stroke-linecap="round" stroke-width="2"/>
          <path id="Path_92" data-name="Path 92" d="M4.883,0A4.883,4.883,0,1,1,0,4.883" transform="translate(46.066 9.767) rotate(-90)" fill="none" stroke="#7243bf" stroke-linecap="round" stroke-width="2"/>
          <path id="Path_93" data-name="Path 93" d="M4.883,0A4.883,4.883,0,1,1,0,4.883" transform="translate(60.007 9.767) rotate(-90)" fill="none" stroke="#7243bf" stroke-linecap="round" stroke-width="2"/>
        </g>
        <path id="Path_97" data-name="Path 97" d="M8954.31,20254.289c11.434,1.877,2.9,10.836,2.9,10.836s10.58,6.572-1.451,14.336" transform="translate(-8926.736 -20232.836)" fill="none" stroke="#7243bf" stroke-width="2"/>
        <line id="Line_57" data-name="Line 57" y2="25.238" transform="translate(41.662 21.637)" fill="none" stroke="#7243bf" stroke-width="2"/>
      </g>
      <g id="Group_251" data-name="Group 251" transform="translate(123.943 196.655)">
        <g id="Group_245" data-name="Group 245" transform="translate(5.722)">
          <g id="Group_244" data-name="Group 244" transform="translate(62.607 71.626) rotate(180)">
            <g id="Path_61-2" data-name="Path 61" transform="translate(0 0)" fill="none" stroke-linecap="round">
              <path d="M3,.32s11.971.72,26.611,0,30.211,0,30.211,0a2.785,2.785,0,0,1,2.785,2.785V68.841a2.785,2.785,0,0,1-2.785,2.785H3A2.785,2.785,0,0,1,.215,68.841S-.268,47.576.215,30.9s0-27.791,0-27.791A2.785,2.785,0,0,1,3,.32Z" stroke="none"/>
              <path d="M 43.9498291015625 -7.62939453125e-06 L 43.9498291015625 1.999992370605469 C 38.78509521484375 2.000007629394531 33.9937744140625 2.106903076171875 29.70896148681641 2.317718505859375 C 25.35873031616211 2.53173828125 20.8153190612793 2.6402587890625 16.20495223999023 2.6402587890625 C 8.870948791503906 2.6402587890625 3.660697937011719 2.3607177734375 2.960105895996094 2.321128845214844 C 2.555049896240234 2.341529846191406 2.229923248291016 2.670219421386719 2.215229034423828 3.076736450195312 C 2.251632690429688 3.972358703613281 2.675739288330078 15.00724792480469 2.213874816894531 30.95428085327148 C 1.737861633300781 47.38959503173828 2.209373474121094 68.58329010009766 2.214195251464844 68.79544830322266 L 2.214706420898438 68.81816101074219 L 2.214706420898438 68.84087371826172 C 2.214706420898438 69.27394104003906 2.5670166015625 69.62625885009766 3.000072479248047 69.62625885009766 L 59.82158660888672 69.62625885009766 C 60.254638671875 69.62625885009766 60.60695266723633 69.27394104003906 60.60695266723633 68.84087371826172 L 60.60695266723633 28.03431701660156 L 60.60695266723633 3.105514526367188 C 60.60695266723633 2.672447204589844 60.254638671875 2.32012939453125 59.82158660888672 2.32012939453125 L 59.77534103393555 2.32012939453125 L 59.72919464111328 2.3179931640625 C 59.66039657592773 2.314811706542969 52.74719619750977 1.999984741210938 43.9498291015625 1.999992370605469 L 43.9498291015625 -7.62939453125e-06 M 43.9498291015625 0 C 52.90160369873047 -2.288818359375e-05 59.82158660888672 0.32012939453125 59.82158660888672 0.32012939453125 C 61.35989761352539 0.32012939453125 62.60695266723633 1.567192077636719 62.60695266723633 3.105514526367188 L 62.60695266723633 28.03431701660156 L 62.60695266723633 68.84087371826172 C 62.60695266723633 70.37919616699219 61.35989761352539 71.62625885009766 59.82158660888672 71.62625885009766 L 3.000072479248047 71.62625885009766 C 1.461750030517578 71.62625885009766 0.2147064208984375 70.37919616699219 0.2147064208984375 68.84087371826172 C 0.2147064208984375 68.84087371826172 -0.2683830261230469 47.57611465454102 0.2147064208984375 30.89638137817383 C 0.6977958679199219 14.21663665771484 0.2147064208984375 3.105514526367188 0.2147064208984375 3.105514526367188 C 0.2147064208984375 1.567192077636719 1.461750030517578 0.32012939453125 3.000072479248047 0.32012939453125 C 3.000072479248047 0.32012939453125 8.321113586425781 0.6402511596679688 16.2049446105957 0.6402511596679688 C 20.1475830078125 0.6402511596679688 24.73007202148438 0.5602493286132812 29.61068344116211 0.32012939453125 C 34.49040222167969 0.080047607421875 39.47434997558594 7.62939453125e-06 43.9498291015625 0 Z" stroke="none" fill="#7243bf"/>
            </g>
          </g>
          <line id="Line_58" data-name="Line 58" x2="10.81" transform="translate(9.406 10.76)" fill="none" stroke="#7243bf" stroke-linecap="round" stroke-width="2"/>
          <line id="Line_46" data-name="Line 46" x2="41.78" transform="translate(9.406 35.454)" fill="none" stroke="#7243bf" stroke-linecap="round" stroke-width="2"/>
          <line id="Line_49" data-name="Line 49" x2="40.666" transform="translate(9.406 60.148)" fill="none" stroke="#7243bf" stroke-linecap="round" stroke-width="2"/>
          <line id="Line_42" data-name="Line 42" x2="42.895" transform="translate(9.406 18.992)" fill="none" stroke="#7243bf" stroke-linecap="round" stroke-width="2"/>
          <line id="Line_45" data-name="Line 45" x2="38.438" transform="translate(9.406 43.686)" fill="none" stroke="#7243bf" stroke-linecap="round" stroke-width="2"/>
          <line id="Line_43" data-name="Line 43" x2="44.566" transform="translate(9.406 27.223)" fill="none" stroke="#7243bf" stroke-linecap="round" stroke-width="2"/>
          <line id="Line_44" data-name="Line 44" x2="44.566" transform="translate(9.406 51.918)" fill="none" stroke="#7243bf" stroke-linecap="round" stroke-width="2"/>
        </g>
        <path id="Path_98" data-name="Path 98" d="M9057.592,20296.209h-3.175c-1.739,0-1.4,1.426-1.4,1.426s.15,56.348,0,59.754,2.892,3.012,2.892,3.012h51.27s2.045.115,2.045-1.373v-1.279" transform="translate(-9052.989 -20284.863)" fill="none" stroke="#7243bf" stroke-width="2"/>
      </g>
      <g id="Group_248" data-name="Group 248" transform="translate(221.754 177.13)">
        <path id="Path_100" data-name="Path 100" d="M9756.985,19860.1a33.835,33.835,0,0,0-4.917,17.117c.04,3.9,1.28,7.963,2.841,12.354,2.013,5.662,3.883,11.092,3.883,11.092s.517,6.545.919,11.293.63,7.506,2.29,7.563,2.52-3.977,3.158-7.758.845-6.844.845-6.844h3.378s.584,5.813.893,8.49,2.131,7.994,3.575,5.871,2.7-13.973,2.7-13.973,3.343-.512,5.944-.994a15.716,15.716,0,0,0,2.688-.8,19.469,19.469,0,0,0,2.547-1.2,7.053,7.053,0,0,0,2.8,3.953c2.119,1.254,2.409,5.105,2.507,7.9s1.253,7.9,2.506,5.105a60.034,60.034,0,0,0,2.5-9.059s1.544,2.508,1.64,1.736,0-3.473,0-3.473.964,1.254,1.253.869,0-4.627,0-4.627,5.205,5.494,5.879,8.674,2.023,6.459,3.375,6.365,3.18-6.17,2.794-10.412a26.429,26.429,0,0,1,0-6.363s1.543,2.99,2.217,2.7,0-4.437,0-4.437h1.156a35.856,35.856,0,0,0-3.373-10.117c-2.41-4.242-3.951-5.3-3.951-5.3s8.663.43,13.641-3.943,8.447-19.23-4.978-22.7-17.724,6.594-16.084,11.414,5.676,5.18,5.676,5.18.105-4.5,3.865-3.445,3.828,5.934,1.264,7.895-6.468,2.031-6.468,2.031-1.831-3.275-8.385-2.793-12.435,2.217-14.94-3.084a24.7,24.7,0,0,1-2.024-11.18l6.433,3.422s-3.539-4.584-4.119-7.717-1.453-5.314-3.574-5.7-4.734,1.9-4.734,1.9-3.875-2.906-6.766-2.906a10.269,10.269,0,0,0-5.264,1.654,4.039,4.039,0,0,0-3.561-1.654c-2.6,0-2.731,1.172-5.431,2.906s-5.656,4.107-5.656,4.107a8.6,8.6,0,0,0,5.279.453C9756.194,19860.99,9756.985,19860.1,9756.985,19860.1Z" transform="translate(-9747.926 -19854.199)" fill="none" stroke="#7243bf" stroke-linejoin="round" stroke-width="2"/>
        <path id="Path_101" data-name="Path 101" d="M9776.918,19906.613c1.316-1.684,2.84-1.527,2.705-.551s-.191,7.289,1.832,7.289a4.736,4.736,0,0,0,3.331-1.551,1.955,1.955,0,0,0,2.276,1.941,5.82,5.82,0,0,0,5.047-3.324c.942-1.859,2.5-2.77,3.1-2.16" transform="translate(-9768.619 -19888.799)" fill="none" stroke="#7243bf" stroke-linecap="round" stroke-width="2"/>
        <path id="Path_102" data-name="Path 102" d="M9791.767,19929.82a28.941,28.941,0,0,0,.271,4.629c.332,1.953.635,3.469,2.415,3.373s3.584-5.357,4.247-7.65" transform="translate(-9778.976 -19904.859)" fill="none" stroke="#7243bf" stroke-linecap="round" stroke-width="2"/>
        <path id="Path_103" data-name="Path 103" d="M9795.156,19912.928c-.623-.152-2.55-2.4-1.673-3.75s4.522-.439,4.725.268C9799.1,19911.578,9795.779,19913.084,9795.156,19912.928Z" transform="translate(-9778.634 -19890.865)" fill="none" stroke="#7243bf" stroke-width="2"/>
        <g id="Ellipse_18" data-name="Ellipse 18" transform="translate(13.338 10.222)" fill="none" stroke="#7243bf" stroke-width="2">
          <ellipse cx="1.205" cy="1.205" rx="1.205" ry="1.205" stroke="none"/>
          <ellipse cx="1.205" cy="1.205" rx="0.205" ry="0.205" fill="none"/>
        </g>
        <g id="Ellipse_19" data-name="Ellipse 19" transform="translate(22.662 10.911)" fill="none" stroke="#7243bf" stroke-width="2">
          <ellipse cx="1.205" cy="1.205" rx="1.205" ry="1.205" stroke="none"/>
          <ellipse cx="1.205" cy="1.205" rx="0.205" ry="0.205" fill="none"/>
        </g>
        <path id="Path_104" data-name="Path 104" d="M9870.779,19989.486s3.658-.936,4.593-1.928" transform="translate(-9827.567 -19942.785)" fill="none" stroke="#7243bf" stroke-linecap="round" stroke-width="2"/>
        <path id="Path_105" data-name="Path 105" d="M9888.92,19971.869a13.072,13.072,0,0,0,4.07,8.279" transform="translate(-9841.621 -19931.494)" fill="none" stroke="#7243bf" stroke-linecap="round" stroke-width="2"/>
      </g>
      <path id="Path_106" data-name="Path 106" d="M9236.128,20231.969s4.232,21.016-2.115,33.264-9.875,10.559-9.875,10.559" transform="translate(-8964.136 -20092.152)" fill="none" stroke="#7243bf" stroke-width="2" stroke-dasharray="3"/>
      <line id="Line_59" data-name="Line 59" x2="48.646" transform="translate(230.045 243.307)" fill="none" stroke="#774ac1" stroke-width="2"/>
      <line id="Line_60" data-name="Line 60" x2="35.191" transform="translate(259.025 246.412)" fill="none" stroke="#774ac1" stroke-width="2"/>
      <path id="Path_109" data-name="Path 109" d="M8925.876,20166.484h38.79s-.823-4.926-4.883-5.463-5.444,1.98-5.444,1.98,1.386-13.854-10.87-13.7-10.928,11.717-10.928,11.717-5.231-.945-6.665,1.631S8925.876,20166.484,8925.876,20166.484Z" transform="translate(-8902.239 -20086.191)" fill="none" stroke="#7243bf" stroke-linejoin="round" stroke-width="2"/>
      <path id="Path_111" data-name="Path 111" d="M6.638,20.615l.8,5.406L26.776,0,.788,10.775l2.257,2.445L0,24.095,18.13,6.818" transform="translate(245.894 84.04) rotate(176)" fill="none" stroke="#7243bf" stroke-linecap="round" stroke-linejoin="round" stroke-width="2"/>
      <path id="Path_112" data-name="Path 112" d="M0,.178C5.8-.329,11.715.256,14.9,1.82" transform="translate(254.379 47.113) rotate(129)" fill="none" stroke="#7243bf" stroke-linecap="round" stroke-width="2"/>
      <path id="Path_115" data-name="Path 115" d="M0,.223A6.937,6.937,0,0,0,2.575,0" transform="translate(257.037 43.408) rotate(129)" fill="none" stroke="#7243bf" stroke-linecap="round" stroke-width="2"/>
      <path id="Path_113" data-name="Path 113" d="M0,.253C5.8-.468,11.715.365,14.9,2.589" transform="translate(257.108 55.957) rotate(129)" fill="none" stroke="#7243bf" stroke-linecap="round" stroke-width="2"/>
    </g>
    <line id="Line_65" data-name="Line 65" x2="21" transform="translate(1048.5 244.146)" fill="none" stroke="#7243bf" stroke-width="2"/>
    <line id="Line_87" data-name="Line 87" x2="20" transform="translate(1001.5 244.146)" fill="none" stroke="#7243bf" stroke-width="2"/>
    <line id="Line_76" data-name="Line 76" y1="8" transform="translate(1015.5 231.5)" fill="none" stroke="#7243bf" stroke-width="2"/>
    <line id="Line_90" data-name="Line 90" y1="16" transform="translate(1015.5 248.5)" fill="none" stroke="#7243bf" stroke-width="2"/>
    <line id="Line_92" data-name="Line 92" y1="11" transform="translate(1015.5 261.5)" fill="none" stroke="#7243bf" stroke-width="2"/>
    <line id="Line_88" data-name="Line 88" y1="18" transform="translate(1054.5 231.5)" fill="none" stroke="#7243bf" stroke-width="2"/>
    <line id="Line_89" data-name="Line 89" y1="5" transform="translate(1054.5 248.5)" fill="none" stroke="#7243bf" stroke-width="2"/>
    <line id="Line_91" data-name="Line 91" y1="10" transform="translate(1054.5 262.5)" fill="none" stroke="#7243bf" stroke-width="2"/>
    <line id="Line_93" data-name="Line 93" y1="5" transform="translate(1036.5 267.5)" fill="none" stroke="#7243bf" stroke-width="2"/>
    <line id="Line_67" data-name="Line 67" x2="68" transform="translate(1001.5 229.5)" fill="none" stroke="#7243bf" stroke-width="2"/>
    <line id="Line_66" data-name="Line 66" x2="21" transform="translate(1047.5 257.879)" fill="none" stroke="#7243bf" stroke-width="2"/>
    <line id="Line_95" data-name="Line 95" x2="9" transform="translate(1059.5 257.879)" fill="none" stroke="#7243bf" stroke-width="2"/>
    <line id="Line_86" data-name="Line 86" x2="18" transform="translate(1001.5 257.879)" fill="none" stroke="#7243bf" stroke-width="2"/>
  </g>
</svg>
