<?xml version="1.0" encoding="UTF-8"?>
<svg width="129px" height="122px" viewBox="0 0 129 122" version="1.1" xmlns="http://www.w3.org/2000/svg" xmlns:xlink="http://www.w3.org/1999/xlink">
    <!-- Generator: Sketch 49.1 (51147) - http://www.bohemiancoding.com/sketch -->
    <title>Slice</title>
    <desc>Created with Sketch.</desc>
    <defs></defs>
    <g id="Page-1" stroke="none" stroke-width="1" fill="none" fill-rule="evenodd">
        <g id="Reddit_new" transform="translate(6.000000, 1.000000)" fill-rule="nonzero">
            <path d="M115.863945,46.5435969 C115.863945,38.5077094 109.349599,31.9936335 101.313712,31.9936335 C97.2891623,31.9936335 93.6534241,33.6343534 91.0201832,36.2756832 C82.8834529,31.0278063 72.4882723,27.6835419 61.0714503,27.161801 C61.0784607,22.3143298 63.2495497,17.7955419 67.0314293,14.7616257 C70.8200497,11.7225864 75.713089,10.5844634 80.4524372,11.6371126 L81.1033325,11.7816361 C81.0968613,11.9447644 81.0787958,12.1046571 81.0787958,12.2694031 C81.0787958,18.9773455 86.5167644,24.4153141 93.2247068,24.4153141 C99.9326492,24.4153141 105.370618,18.9773455 105.370618,12.2694031 C105.370618,5.5611911 99.9326492,0.123492147 93.2247068,0.123492147 C88.9113796,0.123492147 85.1330052,2.37816754 82.9780942,5.76665183 L81.8140864,5.5080733 C75.2053691,4.03964921 68.3844503,5.62725131 63.1028691,9.86427225 C57.8277592,14.0961702 54.8003141,20.3999319 54.7933037,27.161801 C43.379178,27.6832723 32.9858848,31.0259188 24.8499634,36.2713691 C22.2164529,33.6295 18.575322,31.9933639 14.5499634,31.9933639 C6.51434555,31.9936335 0,38.5077094 0,46.5435969 C0,52.1425366 3.16819372,56.9932435 7.80481152,59.4256073 C7.45267016,61.2267592 7.26743194,63.068356 7.26743194,64.9428482 C7.26743194,85.8496911 29.9506204,102.798045 57.9318377,102.798045 C85.913055,102.798045 108.596243,85.8496911 108.596243,64.9428482 C108.596243,63.0694346 108.411005,61.2286466 108.059403,59.4283037 C112.696291,56.9954005 115.863945,52.1430759 115.863945,46.5435969 Z M93.2247068,6.40190838 C96.4603089,6.40190838 99.0924712,9.03407068 99.0924712,12.2696728 C99.0924712,15.5050052 96.4603089,18.1371675 93.2247068,18.1371675 C89.9891047,18.1371675 87.3569424,15.5050052 87.3569424,12.2696728 C87.3569424,9.03407068 89.9893743,6.40190838 93.2247068,6.40190838 Z M6.2781466,46.5435969 C6.2781466,41.9824764 9.98884293,38.2717801 14.5499634,38.2717801 C16.5034581,38.2717801 18.2965209,38.9561099 19.711288,40.0939634 C15.2860628,43.8904031 11.8600995,48.3531073 9.73296073,53.2531571 C7.64384031,51.7526466 6.2781466,49.3073403 6.2781466,46.5435969 Z M89.9993508,86.6809712 C81.5080524,93.0254476 70.1195419,96.5196283 57.9321073,96.5196283 C45.7446728,96.5196283 34.3561623,93.0254476 25.8648639,86.6809712 C17.9209215,80.7455288 13.5458482,73.0253822 13.5458482,64.9428482 C13.5458482,56.8600445 17.9209215,49.1398979 25.8648639,43.2044555 C34.3561623,36.8599791 45.7446728,33.3657984 57.9321073,33.3657984 C70.1195419,33.3657984 81.5080524,36.8599791 89.9993508,43.2044555 C97.9432932,49.1398979 102.318366,56.8600445 102.318366,64.9428482 C102.318097,73.0253822 97.9432932,80.7455288 89.9993508,86.6809712 Z M106.129097,53.2493822 C104.001419,48.3501414 100.575725,43.8887853 96.1513089,40.0928848 C97.5660759,38.9550314 99.3602173,38.2717801 101.313982,38.2717801 C105.875102,38.2717801 109.585798,41.9824764 109.585798,46.5435969 C109.585529,49.3070707 108.218217,51.749411 106.129097,53.2493822 Z" id="Shape" fill="#181A1C"></path>
            <g id="Group" transform="translate(32.625654, 49.342932)" fill="#D80000">
                <circle id="Oval" cx="6.80015707" cy="6.75971204" r="6.62489529"></circle>
                <circle id="Oval" cx="43.8100524" cy="6.75971204" r="6.62489529"></circle>
            </g>
            <path d="M73.6312487,72.2005733 C68.9611963,76.4553901 62.9071152,78.7985052 56.5839398,78.7985052 C49.4839503,78.7985052 42.9057016,75.9371545 38.0611963,70.7415864 C36.879123,69.4732304 34.892733,69.4042042 33.6246466,70.5865471 C32.3565602,71.7686204 32.2872644,73.7552801 33.4696073,75.0230969 C39.4271597,81.4120628 47.8521283,85.0763822 56.5842094,85.0763822 C64.4753037,85.0763822 72.0309738,82.1516675 77.8596414,76.840966 C79.1409398,75.6734529 79.2336937,73.6878717 78.065911,72.4065733 C76.8986675,71.1260838 74.9144346,71.0322513 73.6312487,72.2005733 Z" id="Shape" fill="#181A1C"></path>
        </g>
    </g>
</svg>